<svg height="400pt" preserveAspectRatio="xMidYMid meet" viewBox="0 0 400 400" width="400pt" xmlns="http://www.w3.org/2000/svg"><path d="m330 2000v-1670l568 2 567 3v65 65l-497 3-498 2v730 730h330 330v-400-400l168 2 167 3v65 65l-97 3-98 3v729 730l198 2 197 3v65 65l-267 3-268 2v-400-400h-330-330v730 730h930 930l2-397 3-398 197-3 198-2 2-198 3-197h65 65l3 268 2 267h-200-200v330 330h530 530v-1530-1530h-430-430v330 330h100 100l-2 268-3 267h-65-65l-3-197-2-197-98-3-97-3-3-397-2-398h-330-330l-2 597-3 598-97 3-98 3v329 330h330 330v-330-329l-97-3-98-3v-465-465h65 65l3 398 2 397h100 100v200 200h330 330v-530-529l-97-3-98-3v-65-65l168-3 167-2v1270 1270l-267-2-268-3v-65-65l198-3 197-2v-530-530h-330-330v200 200h-200-200l-2 398-3 397-668 3-667 2 2-467 3-468h65 65l3 398 2 397h530 530v-330-330h-200-200v-470-470h100 100v-330-330h-430-430l-2 397-3 398h-65-65l-3-467-2-468h500 500l2-197 3-198 968-3 967-2v1670 1670h-1670-1670z" transform="matrix(.1 0 0 -.1 0 400)"/></svg>