<svg height="400pt" preserveAspectRatio="xMidYMid meet" viewBox="0 0 400 400" width="400pt" xmlns="http://www.w3.org/2000/svg"><path d="m330 2000v-1670l568 2 567 3v65 65l-497 3-498 2v1530 1530h730 730v-330-330h-400-400v-870-870l168 2 167 3v65 65l-97 3-98 3v729 730h730 730v-730-729l-97-3-98-3v-65-65l168-3 167-2v870 870h-400-400v330 330h730 730v-1530-1530h-830-830l-2 597-3 598-97 3-98 3v329 330h330 330v-330-329l-97-3-98-3v-465-465l568-3 567-2v1270 1270l-467-2-468-3v-65-65l398-3 397-2v-1130-1130h-430-430v330 330h100 100v470 470h-470-470v-470-470h100 100v-330-330h-430-430v1130 1130l398 2 397 3v65 65l-467 3-468 2v-1270-1270h500 500l2-197 3-198 968-3 967-2v1670 1670h-1670-1670z" transform="matrix(.1 0 0 -.1 0 400)"/></svg>