<svg height="400pt" preserveAspectRatio="xMidYMid meet" viewBox="0 0 400 400" width="400pt" xmlns="http://www.w3.org/2000/svg"><path d="m330 2000v-1670l568 2 567 3v465 465l-97 3-98 3v729 730l198 2 197 3v65 65l-267 3-268 2v-870-870h100 100v-330-330h-430-430v1530 1530h1530 1530v-1530-1530h-430-430v330 330h100 100v870 870l-267-2-268-3v-65-65l197-3 198-2v-730-729l-97-3-98-3-3-397-2-398h-330-330l-2 597-3 598-97 3-98 3v329 330h330 330v-330-329l-97-3-98-3v-465-465h65 65l3 398 2 397h100 100v470 470h-200-200v330 330h530 530v-1130-1129l-97-3-98-3v-65-65l168-3 167-2v1270 1270h-1270-1270v-1270-1270l168 2 167 3v65 65l-97 3-98 3v1129 1130h530 530v-330-330h-200-200v-470-470h100 100l2-597 3-598 968-3 967-2v1670 1670h-1670-1670z" transform="matrix(.1 0 0 -.1 0 400)"/></svg>