<svg height="400pt" preserveAspectRatio="xMidYMid meet" viewBox="0 0 400 400" width="400pt" xmlns="http://www.w3.org/2000/svg"><path d="m330 2000v-1670l568 2 567 3v65 65l-497 3-498 2v530 530h330 330v-200-200l168 2 167 3v65 65l-97 3-98 3v729 730l198 2 197 3v65 65l-267 3-268 2v-600-600h-330-330v930 930h1530 1530v-530-530h-330-330v200 200l-267-2-268-3v-65-65l197-3 198-2v-730-729l-97-3-98-3v-65-65l168-3 167-2v600 600h330 330v-930-930h-830-830l-2 597-3 598-97 3-98 3v329 330h330 330v-330-329l-97-3-98-3v-465-465l568-3 567-2-2 667-3 668h-65-65l-3-598-2-597h-430-430v330 330h100 100v470 470h-200-200v330 330h530 530l2-197 3-198h65 65l3 268 2 267h-1270-1270l2-667 3-668h65 65l3 598 2 597h530 530v-330-330h-200-200v-470-470h100 100v-330-330h-430-430l-2 198-3 197h-65-65l-3-268-2-267h500 500l2-197 3-198 968-3 967-2v1670 1670h-1670-1670z" transform="matrix(.1 0 0 -.1 0 400)"/></svg>