<svg height="400pt" preserveAspectRatio="xMidYMid meet" viewBox="0 0 400 400" width="400pt" xmlns="http://www.w3.org/2000/svg"><path d="m330 2000v-1670l568 2 567 3v465 465l-97 3-98 3-2 197-3 197h-65-65l-3-267-2-268h100 100v-330-330h-430-430v930 930l398 2 397 3 3 197 2 198 198 2 197 3v65 65l-267 3-268 2v-200-200h-330-330v530 530h930 930l2-397 3-398 197-3 198-2 2-198 3-197h65 65l3 268 2 267h-200-200v330 330h530 530v-1530-1530h-830-830v330 330h500 500l-2 268-3 267h-65-65l-3-197-2-198h-430-430l-2 198-3 197-97 3-98 3v329 330h330 330v-330-329l-97-3-98-3v-65-65l168-3 167-2v200 200h330 330v-530-530l-497-2-498-3v-65-65l568-3 567-2v1270 1270l-267-2-268-3v-65-65l198-3 197-2v-530-530h-330-330v200 200h-200-200l-2 398-3 397-668 3-667 2 2-267 3-268h65 65l3 198 2 197h530 530v-330-330h-200-200v-200-200l-397-2-398-3-3-668-2-667 167 2 168 3v65 65l-97 3-98 3v529 530h330 330v-200-200h100 100l2-597 3-598 968-3 967-2v1670 1670h-1670-1670z" transform="matrix(.1 0 0 -.1 0 400)"/></svg>