<svg height="400pt" preserveAspectRatio="xMidYMid meet" viewBox="0 0 400 400" width="400pt" xmlns="http://www.w3.org/2000/svg"><path d="m330 2000v-1670l568 2 567 3v465 465l-97 3-98 3-2 197-3 197h-65-65l-3-267-2-268h100 100v-330-330h-430-430v1530 1530h530 530v-330-330h-200-200l2-267 3-268h65 65l3 198 2 197h730 730l2-197 3-198h65 65l3 268 2 267h-600-600v330 330h930 930v-1530-1530h-430-430v330 330h100 100l-2 268-3 267h-65-65l-3-197-2-197-98-3-97-3-3-397-2-398h-330-330l-2 597-3 598-97 3-98 3v329 330h330 330v-330-329l-97-3-98-3v-465-465h65 65l3 398 2 397h100 100v200 200h330 330v-530-529l-97-3-98-3v-65-65l168-3 167-2v1270 1270l-667-2-668-3v-65-65l598-3 597-2v-530-530h-330-330v200 200h-470-470v-200-200h-330-330v530 530l198 2 197 3v65 65l-267 3-268 2v-1270-1270l168 2 167 3v65 65l-97 3-98 3v529 530h330 330v-200-200h100 100l2-597 3-598 968-3 967-2v1670 1670h-1670-1670z" transform="matrix(.1 0 0 -.1 0 400)"/></svg>